<svg width="24" height="24"
   xmlns:svg="http://www.w3.org/2000/svg"
   xmlns="http://www.w3.org/2000/svg"
>
<path fill="#ffffff"
     d="M 5,3 C 4.45,3 3.9798906,3.1965573 3.5878906,3.5878906 3.1965573,3.9798906 3,4.45 3,5 v 14 c 0,0.55 0.1965573,1.020109 0.5878906,1.412109 C 3.9798906,20.803443 4.45,21 5,21 h 14 c 0.55,0 1.020109,-0.196557 1.412109,-0.587891 C 20.803443,20.020109 21,19.55 21,19 V 5 C 21,4.45 20.803443,3.9798906 20.412109,3.5878906 20.020109,3.1965573 19.55,3 19,3 Z M 5,7 H 19 V 19 H 5 Z"
     />
</svg>
