<?xml version="1.0" encoding="UTF-8"?>
<svg version="1.1" viewBox="0 0 24 24" xmlns="http://www.w3.org/2000/svg">
<path d="m12 16c1.25 0 2.3127-0.43733 3.188-1.312 0.87467-0.87533 1.312-1.938 1.312-3.188s-0.43733-2.3127-1.312-3.188c-0.87533-0.87467-1.938-1.312-3.188-1.312s-2.3127 0.43733-3.188 1.312c-0.87467 0.87533-1.312 1.938-1.312 3.188s0.43733 2.3127 1.312 3.188c0.87533 0.87467 1.938 1.312 3.188 1.312zm0 3c-2.4333 0-4.65-0.67933-6.65-2.038-2-1.358-3.45-3.1787-4.35-5.462 0.9-2.2833 2.35-4.1043 4.35-5.463 2-1.358 4.2167-2.037 6.65-2.037 2.4333 0 4.65 0.679 6.65 2.037 2 1.3587 3.45 3.1797 4.35 5.463-0.9 2.2833-2.35 4.104-4.35 5.462-2 1.3587-4.2167 2.038-6.65 2.038zm0-2c1.8833 0 3.6127-0.496 5.188-1.488 1.5747-0.99133 2.7787-2.3287 3.612-4.012-0.83333-1.6833-2.0373-3.021-3.612-4.013-1.5753-0.99133-3.3047-1.487-5.188-1.487s-3.6127 0.49567-5.188 1.487c-1.5747 0.992-2.7787 2.3297-3.612 4.013 0.83333 1.6833 2.0373 3.0207 3.612 4.012 1.5753 0.992 3.3047 1.488 5.188 1.488z" fill="#fff"/>
</svg>
